Coordinates
version=1
nRows=18
nColumns=22
inDegrees=yes

Units are S.I. units (second, meters, Newtons, ...)
If the header above contains a line with 'inDegrees', this indicates whether rotational values are in degrees (yes) or radians (no).

endheader
time	pelvis_tilt	pelvis_list	pelvis_rotation	pelvis_tx	pelvis_ty	pelvis_tz	hip_flexion_r	hip_adduction_r	hip_rotation_r	knee_angle_r	ankle_angle_r	subtalar_angle_r	hip_flexion_l	hip_adduction_l	hip_rotation_l	knee_angle_l	ankle_angle_l	subtalar_angle_l	lumbar_extension	lumbar_bending	lumbar_rotation
      1.21000000	     -1.99767984	     -2.93866905	    -12.45141893	     -1.28745057	      1.00306138	     -0.35497365	     -6.16007085	      6.64048891	      1.69318659	    -11.27079724	     17.01866131	     -4.24793295	     25.58674004	     -5.35523729	      1.41549929	    -20.05044394	      7.43160337	      6.22409773	    -15.19914169	      1.06719115	      5.58281481
      1.22000000	     -1.94771385	     -2.91479825	    -12.75826611	     -1.28110297	      1.00228539	     -0.35503616	     -6.47131660	      6.43973934	      2.01694240	    -11.52361086	     17.26745138	     -4.00071635	     25.48612256	     -5.36501922	      0.98738463	    -19.94098634	      7.39192330	      6.24586882	    -15.17117858	      1.07987239	      5.74049994
      1.23000000	     -1.88681574	     -2.89449605	    -13.07677974	     -1.27458746	      1.00153241	     -0.35514465	     -6.78465158	      6.22975207	      2.37096726	    -11.81351526	     17.46833651	     -3.70662540	     25.34679261	     -5.36998076	      0.52715573	    -19.91424073	      7.31063364	      6.21938787	    -15.14511603	      1.09765559	      5.90475121
      1.24000000	     -1.80823172	     -2.88912615	    -13.40252092	     -1.26787807	      1.00081758	     -0.35526923	     -7.12676186	      6.02012055	      2.71271217	    -12.10620897	     17.64120801	     -3.30472580	     25.16270627	     -5.37993397	      0.05414658	    -19.98446406	      7.16485597	      6.11771083	    -15.12335255	      1.12642104	      6.05399290
      1.25000000	     -1.76842948	     -2.87080718	    -13.73748914	     -1.26105779	      1.00003832	     -0.35543043	     -7.38952638	      5.80242396	      3.07004125	    -12.47786459	     17.81394281	     -3.03486303	     25.00716298	     -5.37678496	     -0.41499404	    -20.15555067	      6.92335838	      6.00088715	    -15.04359796	      1.15047941	      6.22155658
      1.26000000	     -1.69321177	     -2.87180415	    -14.04773256	     -1.25406791	      0.99933216	     -0.35565751	     -7.69767114	      5.58951440	      3.39182851	    -12.85119699	     17.94129543	     -2.57712538	     24.81139904	     -5.36369096	     -0.84234069	    -20.45398178	      6.61501984	      5.77343722	    -14.99295169	      1.19080962	      6.34842202
      1.27000000	     -1.63601812	     -2.86402088	    -14.34288255	     -1.24696205	      0.99862107	     -0.35592397	     -7.95582446	      5.37389443	      3.70741299	    -13.28712194	     18.04078972	     -2.18049534	     24.63637653	     -5.33005875	     -1.22532606	    -20.86110464	      6.21772498	      5.54184431	    -14.90661935	      1.22768193	      6.44169465
      1.28000000	     -1.56894250	     -2.85375163	    -14.60443934	     -1.23972541	      0.99796445	     -0.35625327	     -8.20247478	      5.15637520	      3.99788323	    -13.76899714	     18.09983151	     -1.75275731	     24.46591644	     -5.26816185	     -1.53731374	    -21.38435070	      5.77737873	      5.27038379	    -14.81668786	      1.26295643	      6.48400399
      1.29000000	     -1.48430383	     -2.83955050	    -14.82361818	     -1.23236161	      0.99739017	     -0.35664905	     -8.44260171	      4.93641249	      4.25866115	    -14.30057555	     18.11085267	     -1.28354056	     24.29990403	     -5.17289654	     -1.76723950	    -22.01154153	      5.33932525	      4.95200008	    -14.73242046	      1.29201488	      6.47047797
      1.30000000	     -1.37820358	     -2.80860442	    -15.00515924	     -1.22487133	      0.99693748	     -0.35709404	     -8.67051412	      4.70276733	      4.51253127	    -14.89382828	     18.05441365	     -0.81438767	     24.12686302	     -5.03300746	     -1.91573956	    -22.70044442	      4.94072741	      4.62301780	    -14.65355998	      1.29696529	      6.40844211
      1.31000000	     -1.22432578	     -2.78322514	    -15.11567812	     -1.21721390	      0.99664182	     -0.35765610	     -8.92859300	      4.46948875	      4.69657723	    -15.53218519	     17.94857280	     -0.22351168	     23.93417608	     -4.85776116	     -2.00484187	    -23.45981399	      4.67601752	      4.20176521	    -14.61441524	      1.30707891	      6.27222744
      1.32000000	     -1.03026797	     -2.74043371	    -15.18317043	     -1.20940288	      0.99651889	     -0.35828285	     -9.18822672	      4.21611736	      4.85537433	    -16.24172491	     17.77485243	      0.40485399	     23.69918680	     -4.63554508	     -2.04922346	    -24.22014130	      4.54971641	      3.76720889	    -14.59850108	      1.28961006	      6.08487201
      1.33000000	     -0.79893538	     -2.68326494	    -15.21231596	     -1.20144571	      0.99657286	     -0.35898614	     -9.44049685	      3.94492068	      4.99520327	    -17.03348863	     17.53663593	      1.09349953	     23.40663953	     -4.37246912	     -2.06894297	    -24.94228495	      4.56044437	      3.32901279	    -14.60480261	      1.25193853	      5.86035911
      1.34000000	     -0.53959788	     -2.60939998	    -15.21595358	     -1.19336315	      0.99679857	     -0.35975864	     -9.66154550	      3.65443965	      5.12124288	    -17.92846706	     17.23522327	      1.85767140	     23.04399931	     -4.07337693	     -2.08788844	    -25.58664784	      4.68989052	      2.89904197	    -14.62357533	      1.19310250	      5.61412132
      1.35000000	     -0.26538071	     -2.52462392	    -15.20741738	     -1.18519330	      0.99718294	     -0.36057928	     -9.82048138	      3.35225089	      5.22328321	    -18.95446472	     16.85884092	      2.68650686	     22.60790380	     -3.75440153	     -2.12644606	    -26.12934494	      4.92620357	      2.49586181	    -14.64542832	      1.11978754	      5.36453848
      1.36000000	      0.00507201	     -2.40901676	    -15.19527987	     -1.17694969	      0.99770051	     -0.36143681	     -9.88684625	      3.02505236	      5.32731765	    -20.12127164	     16.39632244	      3.53851108	     22.10058660	     -3.40263857	     -2.20217753	    -26.53330393	      5.26839018	      2.14325959	    -14.64271156	      1.01583563	      5.10529880
      1.37000000	      0.26958259	     -2.30077986	    -15.18427834	     -1.16872203	      0.99835947	     -0.36232003	     -9.83969201	      2.71139960	      5.40316815	    -21.46755714	     15.83936964	      4.44782753	     21.52229535	     -3.06057725	     -2.30401903	    -26.80971962	      5.66350914	      1.81750280	    -14.63895564	      0.91963842	      4.89107082
      1.38000000	      0.50365196	     -2.15149462	    -15.19482855	     -1.16049326	      0.99911461	     -0.36316882	     -9.64563491	      2.37188726	      5.49388180	    -22.98334401	     15.16731596	      5.29348918	     20.89041748	     -2.69226150	     -2.46103778	    -26.93000382	      6.11357385	      1.55481910	    -14.58131262	      0.77932592	      4.67405372
